{
	"asset":{
		"generator":"Khronos glTF Blender I/O v3.5.30",
		"version":"2.0"
	},
	"scene":0,
	"scenes":[
		{
			"name":"Scene",
			"nodes":[
				0
			]
		}
	],
	"nodes":[
		{
			"mesh":0,
			"name":"\u7acb\u65b9\u4f53",
			"rotation":[
				0.6830127239227295,
				-0.6830126643180847,
				0.1830126941204071,
				0.1830126792192459
			]
		}
	],
	"animations":[
		{
			"channels":[
				{
					"sampler":0,
					"target":{
						"node":0,
						"path":"rotation"
					}
				}
			],
			"name":"\u7acb\u65b9\u4f53Action.002",
			"samplers":[
				{
					"input":4,
					"interpolation":"LINEAR",
					"output":5
				}
			]
		}
	],
	"materials":[
		{
			"doubleSided":true,
			"name":"\u30de\u30c6\u30ea\u30a2\u30eb",
			"pbrMetallicRoughness":{
				"metallicFactor":0,
				"roughnessFactor":0.5
			}
		}
	],
	"meshes":[
		{
			"name":"\u7acb\u65b9\u4f53",
			"primitives":[
				{
					"attributes":{
						"POSITION":0,
						"TEXCOORD_0":1,
						"NORMAL":2
					},
					"indices":3,
					"material":0
				}
			]
		}
	],
	"accessors":[
		{
			"bufferView":0,
			"componentType":5126,
			"count":3398,
			"max":[
				1,
				1,
				1
			],
			"min":[
				-1,
				-1,
				-1
			],
			"type":"VEC3"
		},
		{
			"bufferView":1,
			"componentType":5126,
			"count":3398,
			"type":"VEC2"
		},
		{
			"bufferView":2,
			"componentType":5126,
			"count":3398,
			"type":"VEC3"
		},
		{
			"bufferView":3,
			"componentType":5123,
			"count":4986,
			"type":"SCALAR"
		},
		{
			"bufferView":4,
			"componentType":5126,
			"count":61,
			"max":[
				2.5
			],
			"min":[
				0
			],
			"type":"SCALAR"
		},
		{
			"bufferView":5,
			"componentType":5126,
			"count":61,
			"type":"VEC4"
		}
	],
	"bufferViews":[
		{
			"buffer":0,
			"byteLength":40776,
			"byteOffset":0,
			"target":34962
		},
		{
			"buffer":0,
			"byteLength":27184,
			"byteOffset":40776,
			"target":34962
		},
		{
			"buffer":0,
			"byteLength":40776,
			"byteOffset":67960,
			"target":34962
		},
		{
			"buffer":0,
			"byteLength":9972,
			"byteOffset":108736,
			"target":34963
		},
		{
			"buffer":0,
			"byteLength":244,
			"byteOffset":118708
		},
		{
			"buffer":0,
			"byteLength":976,
			"byteOffset":118952
		}
	],
	"buffers":[
		{
			"byteLength":119928,
			"uri":"SpotLightBox.bin"
		}
	]
}
